<svg xmlns="http://www.w3.org/2000/svg" width="1512" height="36" viewBox="0 0 1512 36" fill="none">
  <g opacity="0.4">
    <path d="M6.91325 0H22L-12.9133 36H-28L6.91325 0Z" fill="black"/>
    <path d="M36.9133 0H52L17.0867 36H2L36.9133 0Z" fill="black"/>
    <path d="M66.9133 0H82L47.0867 36H32L66.9133 0Z" fill="black"/>
    <path d="M96.9133 0H112L77.0867 36H62L96.9133 0Z" fill="black"/>
    <path d="M126.913 0H142L107.087 36H92L126.913 0Z" fill="black"/>
    <path d="M156.913 0H172L137.087 36H122L156.913 0Z" fill="black"/>
    <path d="M186.913 0H202L167.087 36H152L186.913 0Z" fill="black"/>
    <path d="M216.913 0H232L197.087 36H182L216.913 0Z" fill="black"/>
    <path d="M246.913 0H262L227.087 36H212L246.913 0Z" fill="black"/>
    <path d="M276.913 0H292L257.087 36H242L276.913 0Z" fill="black"/>
    <path d="M306.913 0H322L287.087 36H272L306.913 0Z" fill="black"/>
    <path d="M336.913 0H352L317.087 36H302L336.913 0Z" fill="black"/>
    <path d="M366.913 0H382L347.087 36H332L366.913 0Z" fill="black"/>
    <path d="M396.913 0H412L377.087 36H362L396.913 0Z" fill="black"/>
    <path d="M426.913 0H442L407.087 36H392L426.913 0Z" fill="black"/>
    <path d="M456.913 0H472L437.087 36H422L456.913 0Z" fill="black"/>
    <path d="M486.913 0H502L467.087 36H452L486.913 0Z" fill="black"/>
    <path d="M516.913 0H532L497.087 36H482L516.913 0Z" fill="black"/>
    <path d="M546.913 0H562L527.087 36H512L546.913 0Z" fill="black"/>
    <path d="M576.913 0H592L557.087 36H542L576.913 0Z" fill="black"/>
    <path d="M606.913 0H622L587.087 36H572L606.913 0Z" fill="black"/>
    <path d="M636.913 0H652L617.087 36H602L636.913 0Z" fill="black"/>
    <path d="M666.913 0H682L647.087 36H632L666.913 0Z" fill="black"/>
    <path d="M696.913 0H712L677.087 36H662L696.913 0Z" fill="black"/>
    <path d="M726.913 0H742L707.087 36H692L726.913 0Z" fill="black"/>
    <path d="M756.913 0H772L737.087 36H722L756.913 0Z" fill="black"/>
    <path d="M786.913 0H802L767.087 36H752L786.913 0Z" fill="black"/>
    <path d="M816.913 0H832L797.087 36H782L816.913 0Z" fill="black"/>
    <path d="M846.913 0H862L827.087 36H812L846.913 0Z" fill="black"/>
    <path d="M876.913 0H892L857.087 36H842L876.913 0Z" fill="black"/>
    <path d="M906.913 0H922L887.087 36H872L906.913 0Z" fill="black"/>
    <path d="M936.913 0H952L917.087 36H902L936.913 0Z" fill="black"/>
    <path d="M966.913 0H982L947.087 36H932L966.913 0Z" fill="black"/>
    <path d="M996.913 0H1012L977.087 36H962L996.913 0Z" fill="black"/>
    <path d="M1026.91 0H1042L1007.09 36H992L1026.91 0Z" fill="black"/>
    <path d="M1056.91 0H1072L1037.09 36H1022L1056.91 0Z" fill="black"/>
    <path d="M1086.91 0H1102L1067.09 36H1052L1086.91 0Z" fill="black"/>
    <path d="M1116.91 0H1132L1097.09 36H1082L1116.91 0Z" fill="black"/>
    <path d="M1146.91 0H1162L1127.09 36H1112L1146.91 0Z" fill="black"/>
    <path d="M1176.91 0H1192L1157.09 36H1142L1176.91 0Z" fill="black"/>
    <path d="M1206.91 0H1222L1187.09 36H1172L1206.91 0Z" fill="black"/>
    <path d="M1236.91 0H1252L1217.09 36H1202L1236.91 0Z" fill="black"/>
    <path d="M1266.91 0H1282L1247.09 36H1232L1266.91 0Z" fill="black"/>
    <path d="M1296.91 0H1312L1277.09 36H1262L1296.91 0Z" fill="black"/>
    <path d="M1326.91 0H1342L1307.09 36H1292L1326.91 0Z" fill="black"/>
    <path d="M1356.91 0H1372L1337.09 36H1322L1356.91 0Z" fill="black"/>
    <path d="M1386.91 0H1402L1367.09 36H1352L1386.91 0Z" fill="black"/>
    <path d="M1416.91 0H1432L1397.09 36H1382L1416.91 0Z" fill="black"/>
    <path d="M1446.91 0H1462L1427.09 36H1412L1446.91 0Z" fill="black"/>
    <path d="M1476.91 0H1492L1457.09 36H1442L1476.91 0Z" fill="black"/>
    <path d="M1506.91 0H1522L1487.09 36H1472L1506.91 0Z" fill="black"/>
    <path d="M1536.91 0H1552L1517.09 36H1502L1536.91 0Z" fill="black"/>
    <path d="M1566.91 0H1582L1547.09 36H1532L1566.91 0Z" fill="black"/>
    <path d="M1596.91 0H1612L1577.09 36H1562L1596.91 0Z" fill="black"/>
    <path d="M1626.91 0H1642L1607.09 36H1592L1626.91 0Z" fill="black"/>
    <path d="M1656.91 0H1672L1637.09 36H1622L1656.91 0Z" fill="black"/>
    <path d="M1686.91 0H1702L1667.09 36H1652L1686.91 0Z" fill="black"/>
    <path d="M1716.91 0H1732L1697.09 36H1682L1716.91 0Z" fill="black"/>
  </g>
</svg>